<?xml version="1.0" encoding="utf-8"?>
<!-- Generator: Adobe Illustrator 22.0.0, SVG Export Plug-In . SVG Version: 6.00 Build 0)  -->
<svg version="1.1" id="Capa_1" xmlns="http://www.w3.org/2000/svg" xmlns:xlink="http://www.w3.org/1999/xlink" x="0px" y="0px"
	 viewBox="0 0 419 419" style="enable-background:new 0 0 419 419;" xml:space="preserve">
<style type="text/css">
	.st0{fill:#F7F7F7;}
</style>
<g>
	<path class="st0" d="M356.8,159.3H15.7c-8.9,0-15.7-6.8-15.7-15.7S6.8,128,15.7,128h341.2c17.2,0,30.8-13.6,30.8-30.8
		s-13.6-30.8-30.8-30.8S326,79.9,326,97.2c0,8.9-6.8,15.7-15.7,15.7c-8.9,0-15.7-6.8-15.7-15.7c0-34.5,27.7-62.2,62.2-62.2
		S419,62.7,419,97.2S391.3,159.3,356.8,159.3z"/>
	<path class="st0" d="M397.1,225.7H15.7C6.8,225.7,0,218.9,0,210s6.8-15.7,15.7-15.7h381.4c8.9,0,15.7,6.8,15.7,15.7
		S405.9,225.7,397.1,225.7z"/>
	<path class="st0" d="M356.8,384c-34.5,0-62.2-27.7-62.2-62.2c0-8.9,6.8-15.7,15.7-15.7c8.9,0,15.7,6.8,15.7,15.7
		c0,17.2,13.6,30.8,30.8,30.8c17.2,0,30.8-13.6,30.8-30.8c0-17.2-13.6-30.8-30.8-30.8H15.7C6.8,291,0,284.2,0,275.3
		c0-8.9,6.8-15.7,15.7-15.7h341.2c34.5,0,62.2,27.7,62.2,62.2S391.3,384,356.8,384z"/>
</g>
</svg>
