<?xml version="1.0" encoding="utf-8"?>
<!-- Generator: Adobe Illustrator 21.1.0, SVG Export Plug-In . SVG Version: 6.00 Build 0)  -->
<svg version="1.1" id="Calque_1" xmlns="http://www.w3.org/2000/svg" xmlns:xlink="http://www.w3.org/1999/xlink" x="0px" y="0px"
	 viewBox="0 0 432 432" style="enable-background:new 0 0 432 432;" xml:space="preserve">
<style type="text/css">
	.st0{fill:#EFC9AF;}
	.st1{fill:#C69C6C;}
	.st2{fill:#020203;}
	.st3{fill:#603914;}
	.st4{fill:#C1292E;}
	.st5{fill:#A67D52;}
	.st6{fill:#343434;}
	.st7{fill:#C7B29A;}
	.st8{fill:#754D24;}
	.st9{fill:#412413;}
	.st10{fill:#1B1B1B;}
	.st11{fill:#9E1460;}
	.st12{fill:#E7267A;}
	.st13{fill:#998675;}
	.st14{fill:#676767;}
	.st15{fill:#BEC1A5;}
	.st16{fill:#8D7968;}
	.st17{fill:#A6A184;}
	.st18{fill:#5B4841;}
	.st19{fill:#C1A07F;}
	.st20{fill:#72403F;}
	.st21{fill:#AA8767;}
	.st22{fill:#D6B394;}
	.st23{fill:#A34F4D;}
	.st24{fill:#B47B61;}
	.st25{fill:#E5C292;}
	.st26{fill:#B4AFA8;}
	.st27{fill:#9E9A98;}
	.st28{fill:#F39323;}
	.st29{fill:#F9B03D;}
	.st30{fill:#50B162;}
	.st31{fill:#106B40;}
	.st32{fill:#8C633A;}
	.st33{fill:#231F20;}
	.st34{fill:#2C2F32;}
	.st35{fill:#E52328;}
	.st36{fill:#C2C3C3;}
	.st37{fill:#2DABE3;}
	.st38{fill:#F9EA31;}
	.st39{fill:#E52629;}
	.st40{fill:#746458;}
	.st41{fill:#0D71B9;}
	.st42{fill:#E52521;}
	.st43{fill:#F6D9A7;}
	.st44{fill:#F4A5A6;}
	.st45{fill:#6E6F70;}
	.st46{fill:#929497;}
	.st47{fill:#F29A26;}
	.st48{fill:#E0C399;}
	.st49{fill:#F9CBCC;}
	.st50{fill:#EBDA8C;}
	.st51{fill:#30358C;}
	.st52{fill:#F6DEB8;}
	.st53{fill:#FFFFFF;}
	.st54{fill:#959FA1;}
	.st55{fill:#6A737A;}
	.st56{fill:#6CC0A9;}
	.st57{fill:#2C7179;}
	.st58{fill:#F2F2F2;}
	.st59{fill:#D83747;}
	.st60{fill:#C92C3F;}
	.st61{fill:#E67525;}
	.st62{fill:#FFD471;}
	.st63{fill:#F0832C;}
	.st64{fill:#90CDBC;}
	.st65{fill:#1E1B3C;}
	.st66{fill:#3C3C3B;}
	.st67{fill:#E94E1B;}
	.st68{fill:#BE1622;}
	.st69{fill:#665F4A;}
	.st70{fill:#3A3320;}
	.st71{fill:#13110C;}
	.st72{fill:#EDECED;}
	.st73{fill:#24211E;}
	.st74{fill:#DBD9DA;}
	.st75{fill:#D01419;}
	.st76{fill:#E1E0E0;}
	.st77{fill:#ECECEC;}
	.st78{fill:#F8F8F9;}
	.st79{fill:#6A6621;}
	.st80{fill:#89454C;}
	.st81{fill:#CBC135;}
	.st82{fill:#F8C8CB;}
	.st83{fill:#C45853;}
	.st84{fill:#729BA5;}
	.st85{fill:#F8AB00;}
	.st86{fill:#3B3835;}
	.st87{fill:#FAD3D7;}
	.st88{fill:#ECBABB;}
	.st89{fill:#F8CFB4;}
	.st90{fill:#844C16;}
	.st91{fill:#D49F61;}
	.st92{fill:#55514F;}
	.st93{fill:#B57D44;}
	.st94{fill:#FCE1E4;}
	.st95{fill:#D5D4D4;}
	.st96{fill:#B92932;}
	.st97{fill:#97C01E;}
	.st98{fill:#00AED3;}
	.st99{fill:#FFCE00;}
	.st100{fill:#E30613;}
	.st101{fill:#F28E36;}
	.st102{fill:#9B6228;}
	.st103{fill:#F6A753;}
	.st104{fill:#CB3749;}
	.st105{fill:#E4E1E1;}
	.st106{fill:#FDEA00;}
	.st107{fill:#53BFCC;}
	.st108{fill:#C2171F;}
	.st109{fill:#EA5139;}
	.st110{fill:#0098B0;}
	.st111{fill:#F28B00;}
	.st112{fill:#898584;}
	.st113{fill:#FAB84F;}
	.st114{fill:#E74310;}
	.st115{fill:#CC5E16;}
	.st116{fill:#00A33A;}
	.st117{fill:#F18600;}
	.st118{fill:#2C2523;}
	.st119{fill:#006633;}
	.st120{fill:#063141;}
	.st121{fill:#1488A9;}
	.st122{fill:#5CBCB8;}
	.st123{fill:#00472A;}
	.st124{fill:#ECC876;}
	.st125{fill:#EBA700;}
	.st126{fill:#F4E3BC;}
	.st127{fill:#BEBBBB;}
	.st128{fill:#A29F9D;}
	.st129{fill:#72C4BE;}
	.st130{fill:#DACCA3;}
	.st131{fill:#AAC5DD;}
	.st132{fill:#1B6DA2;}
	.st133{fill:#F9B233;}
	.st134{fill:#F39200;}
	.st135{fill:#5E5957;}
	.st136{fill:#BACFDD;}
	.st137{fill:#DBC6AF;}
	.st138{fill:#B17F4A;}
	.st139{fill:#467A97;}
	.st140{fill:#95C11F;}
	.st141{fill:#1D71B8;}
	.st142{fill:#2FAC66;}
	.st143{fill:#00A19A;}
	.st144{fill:#0B3958;}
	.st145{fill:#3AAA35;}
	.st146{fill:#1B4B64;}
	.st147{fill:none;}
	.st148{fill:#EBD53E;}
	.st149{fill:#EFF0F1;}
	.st150{fill:#F1BE00;}
	.st151{fill:#DFA600;}
	.st152{fill:#DAEEEE;}
	.st153{fill:#E9E7EA;}
	.st154{fill:#DE0B15;}
	.st155{fill:#AA1918;}
	.st156{fill:#76232F;}
	.st157{fill:#DC0C1F;}
	.st158{fill:#DC3015;}
	.st159{fill:#AA7F47;}
	.st160{fill:#DAAC71;}
	.st161{fill:#342D45;}
	.st162{fill:#F6F5F9;}
	.st163{fill:#1B1814;}
	.st164{fill:#E03D13;}
	.st165{fill:#BF2B17;}
	.st166{fill:#F5F0EF;}
	.st167{fill:#F19500;}
	.st168{fill:#D8870D;}
	.st169{fill:#31AD71;}
	.st170{fill:#2F7C55;}
	.st171{fill:#1A1814;}
	.st172{fill:#4B4845;}
	.st173{fill:#FAEEF0;}
	.st174{fill:#D19B09;}
	.st175{fill:#F1D7B5;}
	.st176{fill:#FCFCFD;}
	.st177{fill:#93BEC8;}
	.st178{fill:#D8D3D2;}
	.st179{fill:#4D4843;}
	.st180{fill:#4EABB8;}
	.st181{fill:#383835;}
	.st182{fill:#D5DADB;}
	.st183{fill:#9EBABB;}
	.st184{fill:#B4181C;}
	.st185{fill:#DD6A10;}
	.st186{fill:#F0F0F1;}
	.st187{fill:#753811;}
	.st188{fill:#DB0D1B;}
	.st189{fill:#DA213C;}
	.st190{fill:#BCDBB6;}
	.st191{fill:#9A9999;}
	.st192{fill:#4DA354;}
	.st193{fill:#DBBC9A;}
	.st194{fill:#A48A7B;}
	.st195{fill:#C5C2C2;}
	.st196{fill:#CC1417;}
	.st197{fill:#44403D;}
	.st198{fill:#F8D000;}
	.st199{fill:#974493;}
	.st200{fill:#F0811A;}
	.st201{fill:#58B034;}
	.st202{fill:#5BC4E9;}
	.st203{fill:#F8D71A;}
	.st204{fill:#E52921;}
	.st205{fill:#DDAE76;}
	.st206{fill:#F9DCBB;}
	.st207{fill:#CC6F22;}
	.st208{fill:#9CCDC5;}
	.st209{fill:#49998B;}
	.st210{fill:#9F3148;}
	.st211{fill:#DDA519;}
	.st212{fill:#EDC4A2;}
	.st213{fill:#5F3B17;}
	.st214{fill:#191517;}
	.st215{fill:#D9A67E;}
	.st216{fill:#C47713;}
	.st217{fill:#A91917;}
	.st218{fill:#DBC8CE;}
	.st219{fill:#9C6E80;}
	.st220{fill:#BC738E;}
	.st221{fill:#1E1E1C;}
	.st222{fill:#EAEAEA;}
	.st223{fill:#4E4D4D;}
	.st224{fill:#E7E6E6;}
	.st225{fill:#FED063;}
	.st226{fill:#FCBF0A;}
	.st227{fill:#AA5A9F;}
	.st228{fill:#833081;}
	.st229{fill:#882C87;}
	.st230{fill:#A4B639;}
	.st231{fill:#B9C95E;}
	.st232{fill:#D690BB;}
	.st233{fill:#AB6F97;}
</style>
<g>
	<path class="st230" d="M288.1,164.7c-16.6-25.3-61.2-9.3-51.9,19.2c-2.7,2.7-5.3,3.3-8.9,3.6c-0.5-2.7-1.6-5-3.5-7.3
		c-2.5-3.1-7.2-0.3-7.3,3c-0.2,3.5-3.6,3.7-5.5,1.5c-2.2-2.4-6.4-1.1-7.2,1.9c-0.4,1.4-0.7,2.9-1.5,4.1c-1.1,1.7-1.3,1.3-3,0.5
		c-2.5-1.2-5.2-1.9-7.9-0.8c-2.8,1.2-3.5,3.4-4,6.2c-0.7,4.1-5.3,3-8.6,2.4c-2.7-0.5-5.4,1.2-5.4,4.1c0,1.3,0,2.5-0.1,3.8
		c-3,0.1-5.9,0.3-8.9,0.7c-1.7,0.2-3.8,1.2-4.1,3.1c-0.3,1.6-0.1,2.9-0.1,4.6c0,1.4,1.2,1.1-0.4,1.3c-1,0.1-2.6-0.5-3.6-0.6
		c-1.8-0.2-3.3-0.1-5,0.5c-1.7,0.5-3.3,2.2-3.1,4.1c0.1,1.4,0.3,2.8,0.4,4.1c-2.1,0.3-4.2,0.7-6.2,1.3c-2.2,0.6-3.6,3-3,5.3
		c0.5,1.8,0.8,3.6,0.8,5.3c-2,0-4,0-6,0c-2.1,0-4.5,2-4.3,4.3c0.3,2.9,0.2,5.6-0.3,8.3c-2-0.3-4-0.4-6.1-0.4c-2.3,0-4.3,1.9-4.3,4.3
		c0,1.8,0,3.7-0.1,5.5c-0.8,0-1.6,0.1-2.5,0.1c-1.9,0.1-3.6,1.3-4.1,3.1c-0.5,2-1,4-1.3,6.1c-1.2-0.1-2.4,0-3.6,0.1
		c-3,0.4-6.7,1.7-9.4,0c-3.4-2.1-6.7,1.3-6.3,4.4c-18.6-15.8-0.2-70.8,25.2-77.7c13.2-3.5,86.2-10.1,113-59.3
		c7.7-14.2-6-33.6-23.7-35.1c-40.8-3.5-33,37.2-15,18.3c5.1-5.3,20.8-3.6,22.2,3.4c7.6,37.5-69.8,40.9-104.1,59.8
		c-28.5,15.7-51.7,79.2-22.7,113.5c9.3,11,6.6,27.2,52.2,40.2c-11.8,13.4-46.7,15.8-43.5,27.7c0.6,2.3,3,3.8,5.4,4.1
		c0.1,0,62.3-6.2,62.7-37.3c3.8-1,7.6-2.2,11.5-3.4c26.1,7.8,2,22.5,1.2,23.4c-11.7,13.7,34.8,6.6,23.9-22.3
		c-1.2-3.2-3.6-6.1-6.5-7.9c9.8-4,19.5-8.8,28.6-14.3c3.1,9.2,12.6,31.1,23.8,34.9c13,4.4-1.8-19.2-7.9-45.7
		c3.3-2.5,6.1-4.7,8.4-6.7c27,8.1,2.5,22,1.3,23.4c-1.7,2-2.5,7.3,3.3,6.8c31.7-2.8,25.1-41.2,5.4-39.2c7.1-7.3-0.2-2.7,15.6-0.1
		c0,0.9,0.3,1.9,1,2.8c0.6,0.7,1.2,1.5,1.8,2.2c1.5,1.9,4.5,1.4,6.1,0c1-0.9,3,1.4,4.1,1.8c1.6,0.5,3.4,0.4,5-0.4
		c1.8-0.9,2.2-1.6,4.3-1.4c1.7,0.2,3.3,0.8,5,0.9c1.6,0.1,3.2-0.1,4.7-0.8c1-0.4,2.8-2.1,3.5-2.1c1.7,0,3,1.3,5,1.1
		c1.7-0.2,2.8-1.1,4.1-2c0.2-0.1,0.9-0.7,0.6-0.8c0.7,0,1.6,0.5,2.3,0.5c1.5,0.1,3-0.5,4.3-1.2c0.9-0.5,2.3-2.4,3.4-2.6
		c1-0.2,2.5,0.7,3.8,0.4c1.6-0.3,2.9-1.3,3.7-2.7c0.1-0.2,0.4-0.7,0.6-1.1c0.2,0,0.5,0,0.7,0c1.5,0.3,3.3,0,4.7-0.8
		c0.5-0.3,1.1-0.8,1.6-1.3c0.2-0.3,0.4-0.5,0.6-0.8c2.6-0.1,4.5-2.3,4-5.3c-0.2-1.6,0-3.1,0.4-4.6c0.3-1.4,0-2.5-0.6-3.4
		c4.5-5.5,7.8-11.6,9.8-18c-31.4,6.6-64,4.9-94.5-5c-3.1-1-1.8-6,1.4-5c30.3,9.9,62.7,11.5,93.9,4.6c0.2-0.1,0.5-0.1,0.7-0.1
		C364.2,201.6,341,164.4,288.1,164.7z M119.9,267C119.9,267,119.9,266.9,119.9,267C119.9,266.9,119.9,266.9,119.9,267
		C119.9,266.9,119.9,267,119.9,267z M295.7,230.8c-13.7,0-24.9-11.1-24.9-24.9c0-13.7,11.1-24.9,24.9-24.9
		c13.7,0,24.9,11.1,24.9,24.9C320.6,219.7,309.5,230.8,295.7,230.8z"/>
	<path d="M295.7,185.4c-11.4,0-20.6,9.2-20.6,20.6s9.2,20.6,20.6,20.6c11.4,0,20.6-9.2,20.6-20.6S307.1,185.4,295.7,185.4z
		 M295.7,212.1c-3.4,0-6.1-2.7-6.1-6.1s2.7-6.1,6.1-6.1c3.4,0,6.1,2.7,6.1,6.1S299.1,212.1,295.7,212.1z"/>
	<g>
		<path class="st231" d="M191.2,118.5c1.2-1.2,2.9-2.1,4.9-2.6c-1-5.1-2.6-10-4.9-14.7c-3.2,0.8-5.8,2.1-7.8,3.5
			c2.5,5.2,4.2,10.7,4.9,16.4C189.2,120.4,190.2,119.5,191.2,118.5z"/>
		<path class="st231" d="M213.4,121.9c0,0.2,0.1,0.5,0.1,0.7c3.3-5.4,5.5-11.3,6.2-17.6c-2.5-1.7-5.4-3.1-8.4-4
			c-0.1,5.4-1.4,10.6-3.9,15.3C210.5,117.5,212.9,119.3,213.4,121.9z"/>
		<path class="st231" d="M231.8,123c-2.2,2.1-5.9,2.7-8.6,3.5c-3.1,0.9-6.2,1.7-9.4,2.5c-0.3,3.4-1.5,6.6-3.3,9.4
			c0.3,0,0.5,0,0.8-0.1c6.4-1.3,12.7-2.8,18.8-5c0.2-0.1,0.5-0.2,0.7-0.3C232.1,129.8,232.4,126.4,231.8,123z"/>
		<path class="st231" d="M201.1,147.5c-2.4,1.6-5,3.2-7.9,4.6c3.3,2.8,6.8,5.3,10.7,7.3c1.3,0.6,2.6,1.1,3.9,1.6
			c2.5-2,5-4.1,7.3-6.4c-1.9-0.6-3.8-1.2-5.6-2C206.5,151.3,203.7,149.6,201.1,147.5z"/>
		<path class="st231" d="M179.3,158c-2.8,1-5.6,2-8.5,2.9c4.2,5.4,8.5,10.5,13.8,14.4c2.9-1.4,5.8-2.9,8.6-4.5
			C187.6,167.9,183.2,163,179.3,158z"/>
		<path class="st231" d="M154.8,165.7c-3,0.9-6.1,1.7-9.1,2.6c4.9,5.9,10.4,11.1,16.4,15.8c3.2-1,6.5-2.1,9.8-3.4
			c-0.1,0-0.1-0.1-0.2-0.1C165.5,176.2,159.9,171.2,154.8,165.7z"/>
		<path class="st231" d="M130,173.1c-2.9,1-5.8,2-8.5,3c4.3,5.5,9.2,10.4,14.8,14.6c3.5-0.7,7.3-1.6,11.3-2.5
			c-0.3-0.3-0.6-0.6-1-0.8C140.3,183.5,134.7,178.7,130,173.1z"/>
		<path class="st231" d="M96.8,191.8c3.2,3,6.7,5.5,10.5,7.7c3-2.3,6.1-4,9.4-4.9c-5.1-2.1-9.6-5-13.7-8.7
			C100.9,187.6,98.9,189.6,96.8,191.8z"/>
		<path class="st231" d="M97.3,210.4c-4-0.4-8-1.1-11.8-2.4c-1.3,2.5-2.6,5.1-3.8,7.8c3.5,1.3,7.1,2.1,10.8,2.7
			C94,215.6,95.6,212.9,97.3,210.4z"/>
		<path class="st231" d="M89.9,224.2c-3.7-0.1-7.5-0.2-11.2-0.5c-0.9,2.7-1.8,5.5-2.5,8.3c3.6,0.3,7.2,0.5,10.7,0.6
			C87.8,229.8,88.8,227,89.9,224.2z"/>
		<path class="st231" d="M85,241.3c-3.6,0.5-7.2,0.8-10.8,1c-0.4,2.9-0.7,5.8-0.8,8.6c3.6-0.2,7.2-0.5,10.8-0.9
			C84.2,247.2,84.5,244.3,85,241.3z"/>
		<path class="st231" d="M91.7,272.2c-2-1.7-3.6-3.9-4.8-6.5c-3.9,1.7-8,3-12.2,3.8c0.6,2.8,1.3,5.6,2.2,8.3
			c8.2-1.6,15.9-4.8,22.8-9.4c-0.6-0.1-1.2-0.3-1.7-0.7C94.5,265.7,91.3,269.1,91.7,272.2z"/>
	</g>
	<g>
		<g>
			<path class="st232" d="M324.9,169.7C314.1,150.6,307,128,301,112.9c1,0.2,2.1,0.4,3.1,0.6c2.1,0.3,4.5-0.5,5-2.8
				c0.4-1.9-0.6-4.6-2.7-5c0-0.1,0-0.1,0-0.2c0.1,0,0.2,0,0.2,0c2.1-0.1,4.2-1.8,4.1-4.1c0-0.3-0.1-0.6-0.1-0.8c0.5,0,1,0,1.6,0
				c2.2-0.1,4.1-1.8,4.1-4.1c0-2.1-1.9-4.2-4.1-4.1c-0.1,0-0.3,0-0.4,0c0.4-0.9,0.5-1.8,0.2-2.7c-0.1-0.4-0.4-0.8-0.6-1.2
				c0.7-0.2,1.5-0.3,2.3-0.4c2.1-0.3,3.5-3.1,2.8-5c-0.6-1.7-1.9-2.7-3.4-2.9c-0.2-0.8-0.5-1.5-1.1-2c-0.8-0.7-1.8-1.2-2.9-1.2
				c-0.1,0-0.2,0-0.3,0c0.1-0.9-0.1-1.8-0.5-2.5c-1.2-1.9-3.4-2.4-5.4-1.5c-0.2-0.8-0.6-1.6-1.1-2.1c-0.8-0.7-1.8-1.2-2.9-1.2
				c0,0,0,0-0.1,0c-0.3-0.7-0.9-1.3-1.6-1.7c-1.5-0.8-3.2-0.7-4.4,0.2c-0.5-1.8-1.9-3.3-3.9-3.2c-1.4,0.1-2.9,0.9-3.6,2.2
				c-0.4-0.1-0.7-0.2-1.1-0.1c-1.1,0-2.1,0.4-2.9,1.2c-0.2,0.2-0.3,0.4-0.4,0.5c-1.6-1.4-4.2-1.6-5.7,0.1c-0.9,1-1.3,2.4-1.1,3.7
				c-1.5-0.1-3.1,0.8-3.8,2c-0.4,0.8-0.6,1.7-0.5,2.4c-0.9-0.2-1.9-0.1-2.8,0.4c-1.7,1-2.8,3.8-1.5,5.6c0.1,0.1,0.2,0.2,0.2,0.3
				c-1.2,0.5-2.1,1.4-2.4,2.7c-0.5,2.1,0.5,4.1,2.5,4.9c-1.4,0.7-2.5,2.3-2.5,3.8c0.1,2.4,1.8,3.9,4.1,4.1c0.6,0.1,1.1,0.1,1.7,0.2
				c-1.3,0.7-2.4,2.1-2.3,3.6c0.1,2,1.4,3.6,3.3,4c-0.3,0.8-0.4,1.7-0.1,2.5c0.7,2.3,2.8,3.2,5,2.8c2.2-0.4,4.3-1.3,6.1-2.6
				c0.7-0.6,1.4-1.3,1.7-2.1c0,0,0.1,0,0.1,0c-6.4,14.5-16.2,43.7-28.1,61.7c-0.3,0.5-0.1,1.4,0.4,1.7
				C285.3,183.8,327.1,173.7,324.9,169.7z"/>
		</g>
		<g>
			<path class="st233" d="M306.1,126.6c-1.1-2.9-2.1-5.8-3.1-8.4c-8,0.1-16-0.6-23.9-2c-1,2.5-2.1,5.3-3.2,8.1
				C285.9,126.2,296,127,306.1,126.6z"/>
			<path class="st233" d="M311.6,141.1c-1.1-2.9-2.3-5.8-3.3-8.6c-5,0-10-0.1-15.1-0.3c-6.7-0.2-13.3-0.6-19.9-1.6
				c-1.1,2.7-2.2,5.4-3.4,8.2c7.1,1.2,14.4,1.7,21.6,1.9C298.3,141,305,141.1,311.6,141.1z"/>
			<path class="st233" d="M318.1,156.2c-1.3-2.8-2.6-5.7-3.7-8.6c-6,0-11.9-0.1-17.9-0.3c-9.8-0.3-19.6-0.4-29.3-2
				c-1.2,2.7-2.5,5.4-3.8,8c10.3,1.9,20.9,2.2,31.4,2.5C302.5,156.2,310.3,156.3,318.1,156.2z"/>
			<path class="st233" d="M320.3,161c-19.9,1.7-40,1-59.7-2.1c-1.5,2.8-3,5.4-4.6,7.9c22.7,3.8,45.7,4.6,68.5,2.3
				C323.1,166.5,321.7,163.8,320.3,161z"/>
		</g>
	</g>
	<path class="st231" d="M215.5,262c-7.4-5.4-16.4-3.2-24.2,0.2c3.5-7.3,6.2-15.9,0.7-22.8c-5.9-7.4-16.2-4.3-22.6,0.7
		c-21.8,16.9-19.8,61.1-17.2,61.6c1.1,0.9,18.9,3.3,36.4-1c10.1-2.5,22-6.6,28.5-15.2C222.4,278.6,223.2,267.6,215.5,262z"/>
</g>
</svg>
