<?xml version="1.0" encoding="iso-8859-1"?>
<!-- Generator: Adobe Illustrator 19.0.0, SVG Export Plug-In . SVG Version: 6.00 Build 0)  -->
<svg version="1.1" id="Capa_1" xmlns="http://www.w3.org/2000/svg" xmlns:xlink="http://www.w3.org/1999/xlink" x="0px" y="0px"
	 viewBox="0 0 512 512" style="enable-background:new 0 0 512 512;" xml:space="preserve">
<path style="fill:#FFDB6F;" d="M256,8.533C392.67,8.533,503.467,119.33,503.467,256S392.67,503.467,256,503.467
	S8.533,392.67,8.533,256S119.33,8.533,256,8.533z M452.267,230.656c0-9.566-7.757-17.323-17.323-17.323s-17.323,7.757-17.323,17.323
	s7.757,17.323,17.323,17.323l0,0C444.51,247.97,452.258,240.222,452.267,230.656z M433.323,326.229
	c1.246-3.063,1.886-6.34,1.877-9.643c-0.009-4.028-0.947-7.996-2.731-11.605l-0.256-0.512
	c-6.417-12.809-21.999-17.997-34.816-11.605c-6.989,3.507-12.305,9.643-14.763,17.067l-1.109,3.328
	c-2.338,6.955-6.639,13.09-12.373,17.664l-25.259,20.224c-9.941,7.936-11.571,22.434-3.627,32.384
	c4.386,5.487,11.025,8.678,18.048,8.661h11.52c5.239,0,10.325-1.775,14.421-5.035l9.557-7.68
	C411.383,365.466,425.003,347.11,433.323,326.229z M307.712,443.477c0-9.566-7.757-17.323-17.323-17.323
	s-17.323,7.757-17.323,17.323s7.757,17.323,17.323,17.323C299.955,460.792,307.703,453.043,307.712,443.477z M290.133,264.533
	c0-42.419-34.381-76.8-76.8-76.8s-76.8,34.381-76.8,76.8s34.381,76.8,76.8,76.8S290.133,306.953,290.133,264.533z M246.187,89.088
	c8.329-5.581,10.547-16.862,4.966-25.182c-0.657-0.981-1.408-1.886-2.236-2.722c-6.409-6.4-15.095-9.993-24.149-9.984H217.6
	c-13.67,0.009-26.769,5.444-36.437,15.104l-22.272,22.272c-7.066,7.057-7.074,18.517-0.017,25.583
	c3.396,3.405,8.013,5.308,12.817,5.308h8.533c4.796,0.009,9.404-1.894,12.8-5.291l15.019-15.019c3.396-3.396,8.004-5.299,12.8-5.291
	h12.629c3.567,0.034,7.057-1.041,9.984-3.072L246.187,89.088z M211.285,401.067c0-14.14-11.46-25.6-25.6-25.6h-22.101
	c-6.4-0.009-12.544-2.551-17.067-7.083l-2.901-2.901c-9.412-9.438-24.695-9.455-34.125-0.043c-4.54,4.531-7.091,10.692-7.091,17.109
	v8.533c0.009,6.4,2.551,12.544,7.083,17.067c11.853,11.87,27.938,18.526,44.715,18.517h31.488
	C199.825,426.667,211.285,415.206,211.285,401.067z M131.243,144.811c0-9.566-7.757-17.323-17.323-17.323
	s-17.323,7.757-17.323,17.323c0,9.566,7.757,17.323,17.323,17.323l0,0C123.486,162.125,131.234,154.377,131.243,144.811z
	 M76.8,260.267c0-7.066-5.734-12.8-12.8-12.8c-7.066,0-12.8,5.734-12.8,12.8c0,7.066,5.734,12.8,12.8,12.8
	C71.066,273.067,76.8,267.332,76.8,260.267z"/>
<g>
	<circle style="fill:#F48F30;" cx="290.389" cy="443.477" r="17.323"/>
	<circle style="fill:#F48F30;" cx="434.944" cy="230.656" r="17.323"/>
</g>
<g>
	<circle style="fill:#4EBE80;" cx="113.92" cy="144.811" r="17.323"/>
	<path style="fill:#4EBE80;" d="M248.917,61.184C256,68.275,256,79.77,248.909,86.852c-0.836,0.828-1.741,1.579-2.722,2.236
		l-2.731,1.707c-2.927,2.031-6.417,3.106-9.984,3.072h-12.629c-4.796-0.009-9.404,1.894-12.8,5.291l-15.019,15.019
		c-3.396,3.396-8.004,5.299-12.8,5.291h-8.533c-9.993,0-18.099-8.107-18.091-18.108c0-4.796,1.903-9.395,5.291-12.783l22.272-22.272
		c9.668-9.66,22.767-15.095,36.437-15.104h7.168C233.822,51.191,242.509,54.784,248.917,61.184z"/>
</g>
<circle style="fill:#EC9821;" cx="221.867" cy="273.067" r="34.133"/>
<path style="fill:#F5B05C;" d="M213.333,187.733c42.419,0,76.8,34.381,76.8,76.8s-34.381,76.8-76.8,76.8s-76.8-34.381-76.8-76.8
	S170.914,187.733,213.333,187.733z M256,273.067c0-18.85-15.283-34.133-34.133-34.133s-34.133,15.283-34.133,34.133
	s15.283,34.133,34.133,34.133S256,291.917,256,273.067z"/>
<g>
	<path style="fill:#168DE2;" d="M203.776,382.976c9.993,10.001,9.984,26.214-0.026,36.207c-4.796,4.787-11.29,7.484-18.065,7.484
		h-31.488c-16.777,0.009-32.862-6.647-44.715-18.517c-4.531-4.523-7.074-10.667-7.083-17.067v-8.533
		c-0.009-13.329,10.786-24.141,24.107-24.158c6.417-0.009,12.57,2.543,17.109,7.091l2.901,2.901
		c4.523,4.531,10.667,7.074,17.067,7.083h22.101C192.469,375.484,198.972,378.189,203.776,382.976z"/>
	<path style="fill:#168DE2;" d="M435.2,316.587c0.009,3.302-0.631,6.579-1.877,9.643c-8.32,20.881-21.939,39.236-39.509,53.248
		l-9.557,7.68c-4.096,3.26-9.182,5.035-14.421,5.035h-11.52c-12.723,0.026-23.057-10.266-23.083-22.997
		c-0.017-7.023,3.174-13.67,8.661-18.048l25.259-20.224c5.734-4.574,10.035-10.709,12.373-17.664l1.109-3.328
		c2.458-7.424,7.774-13.559,14.763-17.067c12.817-6.391,28.399-1.203,34.816,11.605l0.256,0.512
		C434.253,308.591,435.191,312.559,435.2,316.587z"/>
</g>
<circle style="fill:#FB5968;" cx="64" cy="260.267" r="12.8"/>
<path style="fill:#F5B05C;" d="M256,512C114.611,512,0,397.389,0,256S114.611,0,256,0s256,114.611,256,256
	C511.838,397.321,397.321,511.838,256,512z M256,17.067C124.041,17.067,17.067,124.041,17.067,256S124.041,494.933,256,494.933
	S494.933,387.96,494.933,256C494.78,124.1,387.9,17.22,256,17.067z"/>
<g>
	<path style="fill:#FB5968;" d="M431.889,151.151c-10.334-17.22-23.125-32.845-37.956-46.387L405.47,92.16
		c16.051,14.66,29.892,31.573,41.071,50.219L431.889,151.151z"/>
	<path style="fill:#FB5968;" d="M375.407,89.762c-20.002-14.524-42.513-25.225-66.398-31.573l4.403-16.486
		c25.907,6.878,50.321,18.492,72.013,34.244L375.407,89.762z"/>
	<path style="fill:#FB5968;" d="M390.502,151.091c-18.748-24.004-43.546-42.573-71.851-53.811l6.281-15.863
		c31.13,12.348,58.402,32.768,79.019,59.162L390.502,151.091z"/>
	<path style="fill:#FB5968;" d="M373.35,186.231c-14.319-24.03-35.661-43.085-61.141-54.613l7.049-15.548
		c28.655,12.979,52.642,34.415,68.736,61.44L373.35,186.231z"/>
</g>
<path d="M256,512c141.389,0,256-114.611,256-256S397.389,0,256,0S0,114.611,0,256C0.162,397.321,114.679,511.838,256,512z
	 M256,17.067c131.96,0,238.933,106.974,238.933,238.933S387.96,494.933,256,494.933S17.067,387.96,17.067,256
	C17.22,124.1,124.1,17.22,256,17.067z"/>
<path d="M431.846,151.117l14.643-8.764c-11.153-18.637-24.969-35.541-41.011-50.176l-11.511,12.595
	C408.781,118.298,421.547,133.905,431.846,151.117z"/>
<path d="M385.442,75.947c-21.717-15.693-46.114-27.298-71.996-34.227l-4.429,16.478c23.885,6.391,46.396,17.084,66.449,31.548
	L385.442,75.947z"/>
<path d="M318.677,97.28c28.288,11.23,53.077,29.79,71.825,53.76l13.44-10.513c-20.608-26.385-47.863-46.805-78.976-59.162
	L318.677,97.28z"/>
<path d="M373.325,186.223l14.652-8.73c-16.077-27.034-40.064-48.478-68.719-61.44l-7.049,15.539
	C337.69,143.121,359.023,162.185,373.325,186.223z"/>
<path d="M128,264.533c0,47.13,38.204,85.333,85.333,85.333s85.333-38.204,85.333-85.333S260.463,179.2,213.333,179.2
	C166.229,179.251,128.051,217.429,128,264.533z M281.6,264.533c0,37.7-30.566,68.267-68.267,68.267s-68.267-30.566-68.267-68.267
	s30.566-68.267,68.267-68.267C251.017,196.309,281.557,226.85,281.6,264.533z"/>
<path d="M179.2,273.067c0,23.561,19.106,42.667,42.667,42.667s42.667-19.106,42.667-42.667S245.427,230.4,221.867,230.4
	C198.315,230.426,179.226,249.515,179.2,273.067z M221.867,247.467c14.14,0,25.6,11.46,25.6,25.6c0,14.14-11.46,25.6-25.6,25.6
	c-14.14,0-25.6-11.46-25.6-25.6S207.727,247.467,221.867,247.467z"/>
<path d="M113.92,170.667c14.285,0,25.865-11.58,25.865-25.865s-11.58-25.865-25.865-25.865s-25.865,11.58-25.865,25.865
	C88.073,159.078,99.644,170.65,113.92,170.667z M113.92,136.004c4.855,0,8.798,3.942,8.798,8.798s-3.942,8.798-8.798,8.798
	s-8.798-3.942-8.798-8.798C105.131,139.947,109.065,136.013,113.92,136.004z"/>
<circle cx="64" cy="260.267" r="12.8"/>
<path d="M264.533,443.469c-0.009,14.293,11.571,25.873,25.865,25.882c14.293,0.009,25.873-11.571,25.882-25.865
	c0.009-14.293-11.571-25.873-25.865-25.882c-0.009,0-0.009,0-0.017,0C276.122,417.621,264.55,429.193,264.533,443.469z
	 M299.204,443.469c0.009,4.864-3.934,8.806-8.798,8.815c-4.864,0.009-8.806-3.934-8.815-8.798c-0.009-4.864,3.934-8.806,8.798-8.815
	h0.009C295.262,434.671,299.196,438.605,299.204,443.469z"/>
<path d="M409.071,230.665c0,14.285,11.58,25.865,25.865,25.865c14.285,0,25.865-11.58,25.865-25.865
	c0-14.285-11.58-25.865-25.864-25.865C420.659,204.817,409.088,216.388,409.071,230.665z M443.733,230.665
	c0,4.855-3.942,8.798-8.798,8.798c-4.855,0-8.798-3.942-8.798-8.798s3.942-8.798,8.798-8.798l0,0
	C439.791,221.875,443.725,225.809,443.733,230.665z"/>
<path d="M185.66,366.933h-22.067c-4.139,0.009-8.115-1.638-11.034-4.574l-2.918-2.918c-12.749-12.766-33.434-12.774-46.199-0.017
	c-6.135,6.127-9.574,14.447-9.574,23.117v8.533c-0.026,8.67,3.422,16.99,9.574,23.1c13.431,13.508,31.71,21.077,50.765,21.026
	h31.454c18.85,0,34.133-15.283,34.133-34.133S204.51,366.933,185.66,366.933z M197.734,413.133
	c-3.191,3.217-7.543,5.018-12.075,5.001h-31.454c-14.524,0.043-28.459-5.734-38.699-16.026c-2.935-2.918-4.582-6.895-4.574-11.034
	v-8.533c0-8.619,6.989-15.607,15.616-15.599c4.139,0,8.107,1.647,11.025,4.565l2.918,2.918c6.11,6.153,14.43,9.6,23.1,9.574h22.067
	c9.429,0,17.067,7.637,17.075,17.058C202.735,405.589,200.934,409.933,197.734,413.133z"/>
<path d="M171.699,128h8.533c7.066,0.017,13.85-2.79,18.833-7.799l15.002-15.002c1.792-1.801,4.233-2.807,6.767-2.799h12.621
	c5.257,0,10.394-1.553,14.763-4.463l2.679-1.783c12.237-8.175,15.539-24.721,7.364-36.958c-0.973-1.451-2.082-2.807-3.311-4.045
	c-7.979-8.021-18.833-12.51-30.14-12.484H217.6c-15.932-0.043-31.215,6.289-42.453,17.587l-22.281,22.281
	c-10.402,10.402-10.402,27.264,0,37.666C157.858,125.193,164.634,128,171.699,128z M164.932,94.601l22.281-22.281
	c8.038-8.081,18.987-12.612,30.387-12.587h7.211c6.784-0.017,13.286,2.679,18.074,7.484c3.738,3.738,3.738,9.805,0,13.542
	c-0.444,0.444-0.93,0.836-1.451,1.186l-2.679,1.783c-1.57,1.05-3.413,1.604-5.299,1.604h-12.621
	c-7.066-0.017-13.85,2.79-18.833,7.799l-15.002,15.002c-1.792,1.801-4.233,2.807-6.767,2.799h-8.533
	c-5.282,0-9.566-4.275-9.574-9.557C162.125,98.833,163.132,96.393,164.932,94.601z"/>
<path d="M419.908,283.375c-8.678-2.918-18.167-2.236-26.342,1.877c-9.02,4.48-15.881,12.382-19.038,21.948l-1.135,3.413
	c-1.801,5.376-5.12,10.112-9.549,13.653l-25.25,20.198c-13.628,10.88-15.863,30.746-4.983,44.373
	c5.999,7.518,15.104,11.895,24.721,11.878h11.52c7.168-0.009,14.131-2.449,19.729-6.929l9.583-7.68
	c18.697-14.967,33.203-34.517,42.103-56.747c3.686-9.327,3.174-19.789-1.408-28.715C435.78,292.463,428.595,286.242,419.908,283.375
	z M425.421,323.055c-7.808,19.49-20.523,36.642-36.915,49.766l-9.583,7.68c-2.577,2.057-5.777,3.183-9.071,3.183h-11.52
	c-8.013,0.034-14.532-6.443-14.558-14.455c-0.017-4.446,2.005-8.653,5.478-11.409l25.25-20.198
	c7.014-5.598,12.254-13.116,15.087-21.632l1.126-3.413c1.766-5.248,5.53-9.583,10.479-12.075c2.415-1.212,5.077-1.835,7.782-1.835
	c6.801,0,12.988,3.942,15.846,10.121C427.051,313.242,427.264,318.43,425.421,323.055z"/>
<g>
</g>
<g>
</g>
<g>
</g>
<g>
</g>
<g>
</g>
<g>
</g>
<g>
</g>
<g>
</g>
<g>
</g>
<g>
</g>
<g>
</g>
<g>
</g>
<g>
</g>
<g>
</g>
<g>
</g>
</svg>
