<?xml version="1.0" encoding="utf-8"?>
<!-- Generator: Adobe Illustrator 22.0.0, SVG Export Plug-In . SVG Version: 6.00 Build 0)  -->
<svg version="1.1" xmlns="http://www.w3.org/2000/svg" xmlns:xlink="http://www.w3.org/1999/xlink" x="0px" y="0px"
	 viewBox="0 0 800 800" style="enable-background:new 0 0 800 800;" xml:space="preserve">
<style type="text/css">
	.st0{display:none;}
	.st1{fill:#00D39C;}
	.st2{display:inline;}
	.st3{fill:#727176;}
	.st4{fill:#9A999E;}
	.st5{fill:#241E2B;}
	.st6{fill:#D8D9DD;}
	.st7{clip-path:url(#SVGID_2_);fill:#FF4B3A;}
	.st8{display:inline;fill:#504B55;}
</style>
<g id="Background" class="st0">
	<rect class="st1" width="800" height="800"/>
</g>
<g id="Objects">
	<g>
		<g class="st0">
			<g class="st2">
				<polygon class="st3" points="498.2,118.8 504.2,118.8 504.2,118.8 				"/>
				<polygon class="st3" points="515.8,118.8 527.4,118.7 527.4,118.9 515.8,118.9 				"/>
				<polygon class="st3" points="539,118.7 550.7,118.7 550.7,119 539,118.9 				"/>
				<polygon class="st3" points="562.3,118.6 573.9,118.6 573.9,119 562.3,119 				"/>
				<polygon class="st3" points="585.5,118.6 597.1,118.5 597.1,119.1 585.5,119.1 				"/>
				<polygon class="st3" points="608.7,118.5 620.3,118.5 620.3,119.2 608.7,119.1 				"/>
				<polygon class="st3" points="631.9,118.4 643.5,118.4 643.5,119.2 631.9,119.2 				"/>
				<path class="st3" d="M655.2,118.9c3.9,1.1,7.2,3.9,9,7.4l-0.8,0.4c-1.7-3.4-4.8-6-8.4-7L655.2,118.9z"/>
				<polygon class="st3" points="665.8,138 665.8,149.6 664.7,149.6 664.7,138 				"/>
				<polygon class="st3" points="665.8,161.2 665.9,172.8 664.6,172.8 664.7,161.2 				"/>
				<polygon class="st3" points="665.9,184.4 665.9,196 664.6,196 664.6,184.4 				"/>
				<polygon class="st3" points="666,207.6 666,219.3 664.5,219.3 664.5,207.6 				"/>
				<polygon class="st3" points="666,230.9 666.1,242.5 664.4,242.5 664.5,230.9 				"/>
				<polygon class="st3" points="666.1,254.1 666.1,265.7 664.4,265.7 664.4,254.1 				"/>
				<path class="st3" d="M666.6,277.1c0.8,3.5,3.1,6.8,6.3,8.4l-0.9,1.7c-3.7-2-6.2-5.7-7.2-9.7L666.6,277.1z"/>
				<polygon class="st3" points="683.8,286.6 689.8,286.6 689.8,288.6 683.8,288.6 				"/>
			</g>
		</g>
		<g>
			<path class="st4" d="M637,202.9h-33.9H454.5c-4.7,0-8.5-3.8-8.5-8.5c0-4.7,3.8-8.5,8.5-8.5h32.9h33.9c4.7,0,8.5-3.8,8.5-8.5
				c0-4.7-3.8-8.5-8.5-8.5h-33.9H312.9H279c-4.7,0-8.5,3.8-8.5,8.5c0,4.7,3.8,8.5,8.5,8.5h33.9h30.3c4.7,0,8.5,3.8,8.5,8.5
				c0,4.7-3.8,8.5-8.5,8.5h-7.2c-0.6,0-1.3,0.1-1.9,0.2c-0.6-0.1-1.2-0.2-1.9-0.2h-33.9h-85.1h-33.9c-4.7,0-8.5,3.8-8.5,8.5
				c0,4.7,3.8,8.5,8.5,8.5h25.4c4.7,0,8.5,3.8,8.5,8.5c0,4.7-3.8,8.5-8.5,8.5h-7.2h-33.9c-4.7,0-8.5,3.8-8.5,8.5
				c0,4.7,3.8,8.5,8.5,8.5h33.9h41.8c4.7,0,8.5,3.8,8.5,8.5c0,4.7-3.8,8.5-8.5,8.5h-22.3c-4.7,0-8.5,3.8-8.5,8.5
				c0,4.7,3.8,8.5,8.5,8.5h32.7c4.7,0,8.5,3.8,8.5,8.5c0,4.7-3.8,8.5-8.5,8.5h-28.1h-33.9c-4.7,0-8.5,3.8-8.5,8.5
				c0,4.7,3.8,8.5,8.5,8.5h33.9h48.7c4.7,0,8.5,3.8,8.5,8.5c0,4.7-3.8,8.5-8.5,8.5h-8.5c-4.7,0-8.5,3.8-8.5,8.5
				c0,4.7,3.8,8.5,8.5,8.5h26.5c4.7,0,8.5,3.8,8.5,8.5c0,4.7-3.8,8.5-8.5,8.5h-32.1c-4.7,0-8.5,3.8-8.5,8.5s3.8,8.5,8.5,8.5h33.9
				h25.1c4.7,0,8.5,3.8,8.5,8.5c0,4.7-3.8,8.5-8.5,8.5h-6.7c-4.7,0-8.5,3.8-8.5,8.5c0,4.7,3.8,8.5,8.5,8.5h33.9h0.6
				c4.7,0,8.5,3.8,8.5,8.5c0,4.7-3.8,8.5-8.5,8.5h-7.2c-4.7,0-8.5,3.8-8.5,8.5c0,4.7,3.8,8.5,8.5,8.5H370h57.8h33.9
				c4.7,0,8.5-3.8,8.5-8.5c0-4.7-3.8-8.5-8.5-8.5h-7.2c-4.7,0-8.5-3.8-8.5-8.5c0-4.7,3.8-8.5,8.5-8.5h27.9c4.7,0,8.5-3.8,8.5-8.5
				c0-4.7-3.8-8.5-8.5-8.5h-5.7c-4.7,0-8.5-3.8-8.5-8.5c0-4.7,3.8-8.5,8.5-8.5h27.7h33.9c4.7,0,8.5-3.8,8.5-8.5s-3.8-8.5-8.5-8.5
				h-5.1c-4.7,0-8.5-3.8-8.5-8.5c0-4.7,3.8-8.5,8.5-8.5h28.7h33.9c4.7,0,8.5-3.8,8.5-8.5c0-4.7-3.8-8.5-8.5-8.5h-33.9H520h-16
				c-4.7,0-8.5-3.8-8.5-8.5c0-4.7,3.8-8.5,8.5-8.5h31.8h33.9c4.7,0,8.5-3.8,8.5-8.5c0-4.7-3.8-8.5-8.5-8.5h-33.9h-50.6
				c-4.7,0-8.5-3.8-8.5-8.5c0-4.7,3.8-8.5,8.5-8.5h27.7h33.9c4.7,0,8.5-3.8,8.5-8.5c0-4.7-3.8-8.5-8.5-8.5h-13.5
				c-4.7,0-8.5-3.8-8.5-8.5c0-4.7,3.8-8.5,8.5-8.5h53h33.9c4.7,0,8.5-3.8,8.5-8.5c0-4.7-3.8-8.5-8.5-8.5h-33.9h-19.3
				c-4.7,0-8.5-3.8-8.5-8.5c0-4.7,3.8-8.5,8.5-8.5h36.2H637c4.7,0,8.5-3.8,8.5-8.5C645.5,206.7,641.7,202.9,637,202.9z M325.4,219.8
				h7c0.6,0,1.3-0.1,1.9-0.2c0.6,0.1,1.2,0.2,1.9,0.2h33.5c4.7,0,8.5,3.8,8.5,8.5c0,4.7-3.8,8.5-8.5,8.5h-44.2
				c-4.7,0-8.5-3.8-8.5-8.5C316.9,223.6,320.7,219.8,325.4,219.8z"/>
			<path class="st5" d="M596.8,696.1c4.1,6.5,1.2,11.8-6.5,11.8H205.5c-7.7,0-10.6-5.3-6.5-11.8l137.7-218.6
				c4.1-6.5,13.7-11.8,21.4-11.8h79.8c7.7,0,17.3,5.3,21.4,11.8L596.8,696.1z"/>
			<path class="st6" d="M619.1,202.9H436.5c-4.7,0-8.5-3.8-8.5-8.5c0-4.7,3.8-8.5,8.5-8.5h66.8c4.7,0,8.5-3.8,8.5-8.5
				c0-4.7-3.8-8.5-8.5-8.5H295c-4.7,0-8.5,3.8-8.5,8.5c0,4.7,3.8,8.5,8.5,8.5h64.2c4.7,0,8.5,3.8,8.5,8.5c0,4.7-3.8,8.5-8.5,8.5H352
				c-4.7,0-8.5,3.8-8.5,8.5c0,4.7,3.8,8.5,8.5,8.5h33.5c4.7,0,8.5,3.8,8.5,8.5c0,4.7-3.8,8.5-8.5,8.5h-78.1c-4.7,0-8.5-3.8-8.5-8.5
				c0-4.7,3.8-8.5,8.5-8.5h7c4.7,0,8.5-3.8,8.5-8.5c0-4.7-3.8-8.5-8.5-8.5h-119c-4.7,0-8.5,3.8-8.5,8.5c0,4.7,3.8,8.5,8.5,8.5h25.4
				c4.7,0,8.5,3.8,8.5,8.5c0,4.7-3.8,8.5-8.5,8.5h-41.1c-4.7,0-8.5,3.8-8.5,8.5c0,4.7,3.8,8.5,8.5,8.5h75.7c4.7,0,8.5,3.8,8.5,8.5
				c0,4.7-3.8,8.5-8.5,8.5h-22.3c-4.7,0-8.5,3.8-8.5,8.5c0,4.7,3.8,8.5,8.5,8.5h32.7c4.7,0,8.5,3.8,8.5,8.5c0,4.7-3.8,8.5-8.5,8.5
				h-62c-4.7,0-8.5,3.8-8.5,8.5c0,4.7,3.8,8.5,8.5,8.5h82.6c4.7,0,8.5,3.8,8.5,8.5c0,4.7-3.8,8.5-8.5,8.5H278
				c-4.7,0-8.5,3.8-8.5,8.5c0,4.7,3.8,8.5,8.5,8.5h26.5c4.7,0,8.5,3.8,8.5,8.5c0,4.7-3.8,8.5-8.5,8.5h-32.1c-4.7,0-8.5,3.8-8.5,8.5
				s3.8,8.5,8.5,8.5h58.9c4.7,0,8.5,3.8,8.5,8.5c0,4.7-3.8,8.5-8.5,8.5h-6.7c-4.7,0-8.5,3.8-8.5,8.5c0,4.7,3.8,8.5,8.5,8.5h34.5
				c4.7,0,8.5,3.8,8.5,8.5c0,4.7-3.8,8.5-8.5,8.5H352c-4.7,0-8.5,3.8-8.5,8.5c0,4.7,3.8,8.5,8.5,8.5h91.7c4.7,0,8.5-3.8,8.5-8.5
				c0-4.7-3.8-8.5-8.5-8.5h-7.2c-4.7,0-8.5-3.8-8.5-8.5c0-4.7,3.8-8.5,8.5-8.5h27.9c4.7,0,8.5-3.8,8.5-8.5c0-4.7-3.8-8.5-8.5-8.5
				h-5.7c-4.7,0-8.5-3.8-8.5-8.5c0-4.7,3.8-8.5,8.5-8.5h61.6c4.7,0,8.5-3.8,8.5-8.5s-3.8-8.5-8.5-8.5h-5.1c-4.7,0-8.5-3.8-8.5-8.5
				c0-4.7,3.8-8.5,8.5-8.5h62.6c4.7,0,8.5-3.8,8.5-8.5c0-4.7-3.8-8.5-8.5-8.5H435.3c-4.7,0-8.5,3.8-8.5,8.5c0,4.7,3.8,8.5,8.5,8.5
				H469c4.7,0,8.5,3.8,8.5,8.5c0,4.7-3.8,8.5-8.5,8.5H350.7c-4.7,0-8.5-3.8-8.5-8.5c0-4.7,3.8-8.5,8.5-8.5h16.9
				c4.7,0,8.5-3.8,8.5-8.5c0-4.7-3.8-8.5-8.5-8.5h-16c-4.7,0-8.5-3.8-8.5-8.5c0-4.7,3.8-8.5,8.5-8.5h200c4.7,0,8.5-3.8,8.5-8.5
				c0-4.7-3.8-8.5-8.5-8.5h-84.5c-4.7,0-8.5-3.8-8.5-8.5c0-4.7,3.8-8.5,8.5-8.5h61.6c4.7,0,8.5-3.8,8.5-8.5c0-4.7-3.8-8.5-8.5-8.5
				h-13.5c-4.7,0-8.5-3.8-8.5-8.5c0-4.7,3.8-8.5,8.5-8.5h86.9c4.7,0,8.5-3.8,8.5-8.5c0-4.7-3.8-8.5-8.5-8.5h-53.2
				c-4.7,0-8.5-3.8-8.5-8.5c0-4.7,3.8-8.5,8.5-8.5h70.1c4.7,0,8.5-3.8,8.5-8.5C627.5,206.7,623.7,202.9,619.1,202.9z"/>
			<g>
				<defs>
					<path id="SVGID_1_" d="M596.8,696.1c4.1,6.5,1.2,11.8-6.5,11.8H205.5c-7.7,0-10.6-5.3-6.5-11.8l137.7-218.6
						c4.1-6.5,13.7-11.8,21.4-11.8h79.8c7.7,0,17.3,5.3,21.4,11.8L596.8,696.1z"/>
				</defs>
				<clipPath id="SVGID_2_">
					<use xlink:href="#SVGID_1_"  style="overflow:visible;"/>
				</clipPath>
				<path class="st7" d="M515.8,415.3c-4.7,0-8.5,3.8-8.5,8.5v14.6c0,4.7-3.8,8.5-8.5,8.5c-4.7,0-8.5-3.8-8.5-8.5v-55.7
					c0-4.7-3.8-8.5-8.5-8.5c-4.7,0-8.5,3.8-8.5,8.5v30.4c0,4.7-3.8,8.5-8.5,8.5c-4.7,0-8.5-3.8-8.5-8.5v-8.5c0-4.7-3.8-8.5-8.5-8.5
					c-4.7,0-8.5,3.8-8.5,8.5v25.3c0,4.7-3.8,8.5-8.5,8.5c-4.6,0-8.3-3.7-8.5-8.2v-28.6c0-4.7-3.8-8.5-8.5-8.5
					c-4.7,0-8.5,3.8-8.5,8.5v7.2c0,4.7-3.8,8.5-8.5,8.5c-4.7,0-8.5-3.8-8.5-8.5v-27.9c0-4.7-3.8-8.5-8.5-8.5c-4.7,0-8.5,3.8-8.5,8.5
					v5.7c0,4.7-3.8,8.5-8.5,8.5c-4.7,0-8.5-3.8-8.5-8.5v-14.2c0-4.7-3.8-8.5-8.5-8.5c-4.7,0-8.5,3.8-8.5,8.5v65.1
					c0,4.7-3.8,8.5-8.5,8.5c-4.7,0-8.5-3.8-8.5-8.5v-16.9c0-4.7-3.8-8.5-8.5-8.5c-4.7,0-8.5,3.8-8.5,8.5v37.6v75.1
					c0,4.7,3.8,8.5,8.5,8.5c4.7,0,8.5-3.8,8.5-8.5v-14.6c0-4.7,3.8-8.5,8.5-8.5c4.7,0,8.5,3.8,8.5,8.5v55.7c0,4.7,3.8,8.5,8.5,8.5
					c4.7,0,8.5-3.8,8.5-8.5v-30.4c0-4.7,3.8-8.5,8.5-8.5c4.7,0,8.5,3.8,8.5,8.5v8.5c0,4.7,3.8,8.5,8.5,8.5c4.7,0,8.5-3.8,8.5-8.5
					v-25.3c0-4.7,3.8-8.5,8.5-8.5c4.6,0,8.3,3.7,8.5,8.2v28.6c0,4.7,3.8,8.5,8.5,8.5c4.7,0,8.5-3.8,8.5-8.5v-7.2
					c0-4.7,3.8-8.5,8.5-8.5c4.7,0,8.5,3.8,8.5,8.5v27.9c0,4.7,3.8,8.5,8.5,8.5c4.7,0,8.5-3.8,8.5-8.5v-5.7c0-4.7,3.8-8.5,8.5-8.5
					c4.7,0,8.5,3.8,8.5,8.5v14.2c0,4.7,3.8,8.5,8.5,8.5c4.7,0,8.5-3.8,8.5-8.5v-65.1c0-4.7,3.8-8.5,8.5-8.5c4.7,0,8.5,3.8,8.5,8.5
					v17c0,4.7,3.8,8.5,8.5,8.5c4.7,0,8.5-3.8,8.5-8.5v-37.6v-75.1C524.2,419.1,520.4,415.3,515.8,415.3z"/>
			</g>
		</g>
		<g class="st0">
			<path class="st8" d="M765.1,288.4c0-2.7-6.8-6.3-10.9-6.3c-2.7,0-10.8,0.1-10.8,0.1l-17.6,0.1l-20,0.1l-9.5-9.4
				c-0.2-0.2-0.5-0.2-0.8-0.1c-0.2,0.2-0.3,0.5-0.2,0.7l4.9,11.1c-0.5,0.8-0.4,1.5-0.4,1.5c-0.8,0-1.4,0.7-1.4,1.5
				c0,0.8,0.6,1.4,1.4,1.5c0,0.1,0.3,0.7,0.6,1.3c0.5,1,1.5,1.6,2.5,1.6l26.6,0l-8,3.9c-0.5,0.3-0.8,0.9-0.5,1.5
				c0.1,0.3,0.2,0.5,0.3,0.8c0.2,0.5,0.8,0.8,1.3,0.6l24.7-6.9l7,0C761.1,291.9,765.1,291.1,765.1,288.4z"/>
			<path class="st8" d="M721.1,278.5l5.6,2.7l15.5-0.1l-19.9-5.5c-0.5-0.1-1.1,0.1-1.3,0.6c-0.1,0.3-0.2,0.5-0.3,0.8
				C720.3,277.6,720.6,278.2,721.1,278.5z"/>
		</g>
		<g class="st0">
			<g class="st2">
				<polygon class="st3" points="304.4,137 292.4,137 292.4,136.9 				"/>
				<polygon class="st3" points="280.4,137 268.4,137 268.4,136.9 280.4,136.9 				"/>
				<polygon class="st3" points="256.4,137.1 244.4,137.1 244.4,136.8 256.4,136.9 				"/>
				<polygon class="st3" points="232.4,137.1 220.4,137.1 220.4,136.8 232.4,136.8 				"/>
				<polygon class="st3" points="208.4,137.2 196.4,137.2 196.4,136.7 208.4,136.8 				"/>
				<polygon class="st3" points="184.4,137.2 172.4,137.2 172.4,136.7 184.4,136.7 				"/>
				<polygon class="st3" points="160.4,137.3 148.4,137.3 148.4,136.6 160.4,136.7 				"/>
				<path class="st3" d="M136.8,138.8c-3.5,1.7-6.2,5-7.1,8.8l-0.7-0.2c1-4,3.9-7.4,7.6-9.3L136.8,138.8z"/>
				<polygon class="st3" points="129.2,159.4 129.3,171.4 128.4,171.4 128.4,159.4 				"/>
				<polygon class="st3" points="129.3,183.4 129.3,195.4 128.4,195.4 128.4,183.4 				"/>
				<polygon class="st3" points="129.4,207.4 129.4,219.4 128.3,219.4 128.3,207.4 				"/>
				<polygon class="st3" points="129.4,231.4 129.4,243.4 128.2,243.4 128.3,231.4 				"/>
				<polygon class="st3" points="129.5,255.4 129.5,267.4 128.2,267.4 128.2,255.4 				"/>
				<polygon class="st3" points="129.5,279.4 129.5,291.4 128.1,291.4 128.2,279.4 				"/>
				<polygon class="st3" points="129.6,303.4 129.6,315.4 128.1,315.4 128.1,303.4 				"/>
				<polygon class="st3" points="129.6,327.4 129.7,339.4 128,339.4 128.1,327.4 				"/>
				<polygon class="st3" points="129.7,351.4 129.7,363.4 128,363.4 128,351.4 				"/>
				<path class="st3" d="M129.7,375.4l0,6l0,3c0,1-0.1,2.1-0.3,3.2l-1.8-0.4c0.2-0.9,0.3-1.8,0.3-2.8l0-3l0-6H129.7z"/>
				<path class="st3" d="M122.1,397.6c-1.9,1-4,1.7-6.1,1.9c-1.1,0.1-2.1,0-3.1,0.1l-3,0v-1.9l3,0c1,0,2,0,2.9,0
					c1.9-0.1,3.7-0.7,5.3-1.6L122.1,397.6z"/>
				<polygon class="st3" points="97.9,399.6 96.4,399.6 96.4,397.6 97.9,397.6 				"/>
			</g>
		</g>
		<g class="st0">
			<path class="st8" d="M45.6,402.7l7,0l24.7,6.9c0.5,0.2,1.1-0.1,1.3-0.6c0.1-0.3,0.2-0.5,0.3-0.8c0.2-0.6,0-1.2-0.5-1.5l-8-3.9
				l26.6,0c1.1,0,2.1-0.6,2.5-1.6c0.3-0.6,0.5-1.2,0.6-1.3c0.8,0,1.4-0.7,1.4-1.5c0-0.8-0.6-1.4-1.4-1.5c0,0,0.1-0.7-0.4-1.5
				l4.9-11.1c0.1-0.3,0-0.6-0.2-0.7c-0.2-0.2-0.6-0.1-0.8,0.1l-9.5,9.4l-20-0.1L56.6,393c0,0-8.1-0.1-10.8-0.1
				c-4.1,0-10.9,3.6-10.9,6.3C34.9,401.9,38.9,402.7,45.6,402.7z"/>
			<path class="st8" d="M79.4,387.9c-0.1-0.3-0.2-0.5-0.3-0.8c-0.2-0.5-0.8-0.8-1.3-0.6l-19.9,5.5l15.5,0.1l5.6-2.7
				C79.4,389.1,79.7,388.4,79.4,387.9z"/>
		</g>
	</g>
</g>
</svg>
