<?xml version="1.0" encoding="iso-8859-1"?>
<!-- Generator: Adobe Illustrator 19.0.0, SVG Export Plug-In . SVG Version: 6.00 Build 0)  -->
<svg version="1.1" id="Capa_1" xmlns="http://www.w3.org/2000/svg" xmlns:xlink="http://www.w3.org/1999/xlink" x="0px" y="0px"
	 viewBox="0 0 511.999 511.999" style="enable-background:new 0 0 511.999 511.999;" xml:space="preserve">
<path style="fill:#FFDAB5;" d="M334.373,248.93H177.625l-24.738,202.967c-1.935,15.878,10.456,29.871,26.451,29.871h153.324
	c15.995,0,28.386-13.993,26.451-29.871L334.373,248.93z"/>
<path style="opacity:0.1;enable-background:new    ;" d="M334.373,242.87H177.625l-24.738,202.968
	c-1.935,15.878,10.456,29.871,26.451,29.871h71.357c-36.528-20.364-38.656-84.561-31.94-145.386
	c0.417-3.775,3.574-6.665,7.371-6.708c4.27-0.048,8.556,0.967,12.45,3.067l5.238,2.827c7.605,4.104,16.766,4.104,24.37,0
	l5.737-3.096c8.092-4.367,17.814-3.684,25.562,1.268c8.069,5.156,18.34,5.39,26.635,0.604l10.717-6.182
	c2.131-1.229,4.517-1.906,6.948-2.002L334.373,242.87z"/>
<path style="fill:#FFB655;" d="M336.478,225.094l25.767,54.247c5.163,10.87-3.836,23.117-15.752,21.438l0,0
	c-3.337-0.47-6.737,0.189-9.657,1.873l-10.717,6.182c-8.306,4.792-18.593,4.552-26.667-0.624l0,0
	c-7.853-5.034-17.821-5.409-26.031-0.978l-5.238,2.827c-7.605,4.104-16.766,4.104-24.37,0l-5.238-2.827
	c-8.209-4.431-18.177-4.056-26.03,0.978l0,0c-8.073,5.175-18.36,5.416-26.667,0.624l-10.717-6.182
	c-2.919-1.684-6.318-2.344-9.657-1.873l0,0c-11.916,1.679-20.915-10.569-15.752-21.438l25.767-54.247H336.478z"/>
<path style="fill:#F985AC;" d="M479.55,247.146L479.55,247.146c18.63-4.061,29.388-23.471,23.216-41.512
	C467.14,101.492,384.096,36.295,255.999,36.295S44.857,101.492,9.231,205.633c-6.171,18.041,4.585,37.451,23.215,41.512l0,0
	C179.752,279.257,332.246,279.257,479.55,247.146z"/>
<g>
	<path style="fill:#EAEAEA;" d="M345.586,48.718c-7.635,11.131-12.111,24.598-12.111,39.115c0,38.243,31.002,69.245,69.245,69.245
		c24.063,0,45.253-12.28,57.662-30.91C431.778,89.835,393.438,63.187,345.586,48.718z"/>
	<path style="fill:#EAEAEA;" d="M148.263,182.751c-40.648,0-73.779,32.123-75.429,72.365c49.622,8.794,99.719,13.973,149.902,15.564
		c0.669-4.043,1.035-8.188,1.035-12.421C223.771,216.557,189.965,182.751,148.263,182.751z"/>
	<circle style="fill:#EAEAEA;" cx="309.906" cy="199.373" r="33.588"/>
	<path style="fill:#EAEAEA;" d="M191.069,42.522c-31.8,6.452-59.918,17.796-84.3,33.434c3.47,22.239,22.705,39.256,45.918,39.256
		c25.669,0,46.48-20.809,46.48-46.48C199.166,59.008,196.175,49.985,191.069,42.522z"/>
</g>
<path style="opacity:0.1;enable-background:new    ;" d="M211.007,39.182C108.293,52.841,40.498,114.235,9.231,205.633
	c-6.171,18.041,4.585,37.451,23.215,41.512l0,0c71.213,15.524,143.64,23.519,216.106,24.033
	C106.769,232.958,148.263,78.867,211.007,39.182z"/>
<path d="M509.863,203.205c-10.647-31.123-25.258-58.368-43.467-81.511c-0.089-0.12-0.179-0.239-0.276-0.354
	c-29.96-37.93-69.632-64.775-117.465-79.462c-0.598-0.269-1.219-0.452-1.848-0.556c-27.671-8.279-58.035-12.53-90.808-12.53
	c-73.388,0-134.174,20.672-180.667,61.441c-3.114,2.73-3.425,7.469-0.694,10.584c2.731,3.115,7.47,3.425,10.585,0.694
	c5.461-4.788,11.138-9.282,17.026-13.479c7.794,20.619,27.518,34.678,50.439,34.678c29.765,0,53.98-24.215,53.98-53.98
	c0-7.188-1.418-14.204-4.136-20.727c16.925-2.795,34.753-4.211,53.469-4.211c28.037,0,54.147,3.179,78.201,9.482
	c-5.396,10.666-8.225,22.436-8.225,34.556c0,42.318,34.428,76.745,76.745,76.745c22.262,0,43.143-9.593,57.622-26.071
	c14.58,20.209,26.392,43.438,35.327,69.554c2.272,6.641,1.609,13.937-1.815,20.015c-3.429,6.083-9.076,10.254-15.901,11.741
	C405.17,255.681,330.493,263.726,256,263.726c-8.301,0-16.605-0.116-24.908-0.315c0.109-1.725,0.182-3.446,0.182-5.153
	c0-45.773-37.237-83.01-83.009-83.01c-41.773,0-76.329,30.564-82.132,71.012c-10.731-1.987-21.431-4.122-32.087-6.444
	c-6.825-1.487-12.472-5.657-15.901-11.741c-3.426-6.078-4.088-13.374-1.816-20.015c9.515-27.815,22.5-52.687,38.595-73.924
	c2.502-3.302,1.854-8.006-1.448-10.509c-3.3-2.5-8.005-1.854-10.508,1.447c-17.062,22.514-30.8,48.801-40.833,78.129
	c-3.655,10.686-2.583,22.435,2.941,32.236c5.477,9.719,14.872,16.655,25.773,19.032c37.496,8.173,75.488,14.291,113.698,18.342
	l-1.57,3.306c-3.574,7.524-2.73,16.371,2.202,23.084c4.037,5.494,10.255,8.798,16.904,9.181l-16.643,136.542
	c-1.182,9.698,1.854,19.455,8.332,26.77c6.476,7.314,15.794,11.51,25.564,11.51h153.324c9.771,0,19.088-4.194,25.565-11.51
	c6.477-7.313,9.515-17.071,8.332-26.77l-1.141-9.358c-0.501-4.111-4.244-7.027-8.353-6.538c-4.112,0.502-7.039,4.241-6.538,8.353
	l1.141,9.357c0.663,5.438-1.04,10.909-4.672,15.01c-3.631,4.102-8.856,6.453-14.334,6.453H179.337
	c-5.478,0-10.703-2.352-14.334-6.453c-3.631-4.101-5.334-9.572-4.671-15.01l16.397-134.529l5.4,3.116
	c10.781,6.219,23.986,5.909,34.463-0.806c5.555-3.561,12.614-3.825,18.421-0.693l5.238,2.827c4.931,2.662,10.339,3.992,15.748,3.992
	c5.408-0.001,10.818-1.331,15.748-3.992l5.237-2.826c5.807-3.134,12.866-2.869,18.421,0.691c10.478,6.718,23.683,7.025,34.464,0.807
	l5.4-3.115l10.601,86.976c0.464,3.804,3.698,6.594,7.436,6.594c0.303,0,0.609-0.019,0.917-0.056
	c4.112-0.502,7.039-4.241,6.538-8.353l-10.847-88.99c6.647-0.382,12.866-3.686,16.903-9.181c4.933-6.713,5.776-15.559,2.202-23.084
	l-1.57-3.306c38.21-4.051,76.202-10.169,113.698-18.342c10.902-2.377,20.296-9.314,25.773-19.032
	C512.446,225.641,513.518,213.891,509.863,203.205z M152.686,107.712c-17.71,0-32.778-11.616-37.474-28.221
	c21.543-13.13,45.632-22.661,72.132-28.555c2.824,5.481,4.322,11.544,4.322,17.796C191.666,90.227,174.18,107.712,152.686,107.712z
	 M402.72,149.577c-34.046,0-61.744-27.699-61.744-61.744c0-10.685,2.728-21.03,7.916-30.235
	c22.236,7.285,42.553,17.435,60.821,30.425c15.352,10.918,29.108,23.728,41.235,38.349
	C439.266,140.993,421.61,149.577,402.72,149.577z M80.911,248.887c4.554-33.365,32.969-58.636,67.352-58.636
	c37.5,0,68.008,30.509,68.008,68.009c0,1.551-0.068,3.118-0.179,4.689C170.806,261.208,125.593,256.496,80.911,248.887z
	 M354.73,290.325c-0.81,1.101-3.137,3.597-7.188,3.027c-2.311-0.326-4.657-0.27-6.944,0.12c-0.018,0.002-0.036,0.002-0.055,0.004
	c-0.069,0.008-0.134,0.025-0.202,0.035c-0.115,0.021-0.231,0.037-0.346,0.06c-0.175,0.034-0.347,0.076-0.516,0.122
	c-2.232,0.497-4.395,1.312-6.388,2.462l-10.717,6.183c-5.902,3.404-13.136,3.237-18.871-0.442
	c-10.146-6.501-23.033-6.988-33.642-1.264l-5.238,2.827c-5.397,2.914-11.846,2.915-17.246-0.001l-5.239-2.827
	c-10.605-5.723-23.495-5.237-33.641,1.265c-5.736,3.679-12.968,3.848-18.871,0.442l-10.716-6.183
	c-1.993-1.15-4.155-1.965-6.387-2.462c-0.17-0.046-0.342-0.088-0.518-0.123c-0.113-0.022-0.226-0.038-0.339-0.059
	c-0.07-0.011-0.137-0.028-0.208-0.036c-0.018-0.002-0.037-0.002-0.055-0.004c-2.287-0.39-4.632-0.446-6.943-0.12
	c-4.059,0.578-6.38-1.927-7.189-3.027c-0.809-1.101-2.5-4.062-0.741-7.766l3.889-8.187c31.789,2.888,63.702,4.358,95.582,4.358
	s63.794-1.47,95.583-4.358l3.889,8.187C357.23,286.263,355.539,289.223,354.73,290.325z M350.993,199.371
	c0-22.656-18.432-41.088-41.088-41.088s-41.088,18.432-41.088,41.088s18.432,41.088,41.088,41.088
	C332.561,240.458,350.993,222.027,350.993,199.371z M283.817,199.371c0-14.385,11.703-26.087,26.087-26.087
	s26.087,11.703,26.087,26.087c0,14.385-11.703,26.087-26.087,26.087C295.519,225.458,283.817,213.755,283.817,199.371z"/>
<g>
</g>
<g>
</g>
<g>
</g>
<g>
</g>
<g>
</g>
<g>
</g>
<g>
</g>
<g>
</g>
<g>
</g>
<g>
</g>
<g>
</g>
<g>
</g>
<g>
</g>
<g>
</g>
<g>
</g>
</svg>
