<?xml version="1.0" encoding="iso-8859-1"?>
<!-- Generator: Adobe Illustrator 19.0.0, SVG Export Plug-In . SVG Version: 6.00 Build 0)  -->
<svg version="1.1" id="Capa_1" xmlns="http://www.w3.org/2000/svg" xmlns:xlink="http://www.w3.org/1999/xlink" x="0px" y="0px"
	 viewBox="0 0 204.803 204.803" style="enable-background:new 0 0 204.803 204.803;" xml:space="preserve">
<path style="fill:#FFE600;" d="M153.602,143.363c0-23.893-18.084-36.792-20.086-51.799c-5.163-38.705,0.2-74.494-17.461-74.494
	c-17.203,0-57.252,22.161-61.44,61.44c-2.934,27.52,10.24,40.96,6.827,68.267c-3.04,24.318,23.281,40.96,47.787,40.96
	S153.602,167.869,153.602,143.363z"/>
<path style="fill:#602F75;" d="M109.228,191.15c-16.49,0-32.763-6.832-42.472-17.83c-6.919-7.837-9.926-17.162-8.701-26.967
	c1.647-13.177-0.729-22.878-3.243-33.149c-2.511-10.252-5.105-20.852-3.591-35.057c4.536-42.551,47.502-64.492,64.835-64.492
	c15.713,0,16.809,19.971,18.196,45.259c0.539,9.836,1.152,20.982,2.647,32.198c0.729,5.468,4.007,10.841,7.803,17.062
	c5.77,9.458,12.312,20.178,12.312,35.188C157.015,169.712,135.577,191.15,109.228,191.15z M116.055,20.483
	c-15.039,0-54.002,20.46-58.045,58.388c-1.388,13.018,0.954,22.583,3.434,32.708c2.551,10.419,5.19,21.195,3.386,35.62
	c-0.976,7.805,1.461,15.275,7.045,21.601c8.323,9.428,22.987,15.522,37.356,15.522c22.586,0,40.96-18.376,40.96-40.96
	c0-13.092-5.751-22.516-11.313-31.633c-4.023-6.593-7.822-12.82-8.743-19.714c-1.531-11.481-2.15-22.769-2.698-32.729
	C126.116,35.227,124.86,20.483,116.055,20.483z"/>
<g>
	<circle style="fill:#00E7FF;" cx="162.135" cy="46.081" r="8.533"/>
	<circle style="fill:#00E7FF;" cx="179.202" cy="155.308" r="8.533"/>
	<circle style="fill:#00E7FF;" cx="25.602" cy="131.415" r="8.533"/>
</g>
<g>
	<circle style="fill:#EA3457;" cx="105.815" cy="136.535" r="17.067"/>
	<circle style="fill:#EA3457;" cx="95.575" cy="75.095" r="10.24"/>
</g>
<g>
	<path style="fill:#602F75;" d="M116.057,20.483c-0.275,0-0.553-0.032-0.829-0.102c-1.83-0.457-2.941-2.311-2.485-4.14l3.413-13.653
		c0.457-1.828,2.314-2.944,4.139-2.483c1.83,0.457,2.941,2.311,2.485,4.14l-3.413,13.653
		C118.978,19.447,117.586,20.483,116.057,20.483z"/>
	<path style="fill:#602F75;" d="M126.293,27.31c-1.529,0-2.92-1.034-3.309-2.586c-0.457-1.83,0.655-3.683,2.485-4.14l13.653-3.413
		c1.824-0.463,3.681,0.655,4.139,2.483c0.457,1.83-0.655,3.683-2.485,4.14l-13.653,3.413
		C126.844,27.277,126.566,27.31,126.293,27.31z"/>
	<path style="fill:#602F75;" d="M129.707,47.79c-1.529,0-2.92-1.034-3.309-2.586c-0.457-1.83,0.655-3.683,2.485-4.14l13.653-3.413
		c1.826-0.459,3.681,0.655,4.139,2.483c0.457,1.83-0.655,3.683-2.485,4.14l-13.653,3.413C130.258,47.757,129.98,47.79,129.707,47.79
		z"/>
	<path style="fill:#602F75;" d="M143.362,61.443h-10.24c-1.884,0-3.413-1.529-3.413-3.413c0-1.884,1.529-3.413,3.413-3.413h10.24
		c1.884,0,3.413,1.529,3.413,3.413C146.775,59.914,145.246,61.443,143.362,61.443z"/>
	<path style="fill:#602F75;" d="M143.362,81.923h-10.24c-1.884,0-3.413-1.529-3.413-3.413c0-1.884,1.529-3.413,3.413-3.413h10.24
		c1.884,0,3.413,1.529,3.413,3.413C146.775,80.394,145.246,81.923,143.362,81.923z"/>
	<path style="fill:#602F75;" d="M136.533,102.403c-1.529,0-2.92-1.034-3.309-2.586c-0.457-1.83,0.655-3.683,2.485-4.14l13.653-3.413
		c1.824-0.462,3.681,0.655,4.139,2.483c0.457,1.83-0.655,3.683-2.485,4.14l-13.653,3.413
		C137.084,102.371,136.806,102.403,136.533,102.403z"/>
	<path style="fill:#602F75;" d="M146.775,119.472c-1.353,0-2.635-0.814-3.169-2.147c-0.7-1.751,0.15-3.736,1.901-4.439l17.067-6.827
		c1.749-0.693,3.736,0.154,4.437,1.901c0.7,1.751-0.15,3.736-1.901,4.439l-17.067,6.827
		C147.627,119.391,147.198,119.472,146.775,119.472z"/>
	<path style="fill:#602F75;" d="M167.255,133.123h-13.653c-1.884,0-3.413-1.529-3.413-3.413s1.529-3.413,3.413-3.413h13.653
		c1.884,0,3.413,1.529,3.413,3.413S169.139,133.123,167.255,133.123z"/>
	<path style="fill:#602F75;" d="M163.838,157.017c-0.65,0-1.309-0.184-1.889-0.573l-10.24-6.827
		c-1.568-1.044-1.992-3.164-0.947-4.733c1.046-1.568,3.168-1.992,4.733-0.947l10.24,6.827c1.568,1.044,1.992,3.164,0.947,4.733
		C166.024,156.482,164.942,157.017,163.838,157.017z"/>
	<path style="fill:#602F75;" d="M157.015,174.083c-0.874,0-1.748-0.333-2.413-1l-6.827-6.827c-1.333-1.333-1.333-3.494,0-4.826
		c1.331-1.333,3.495-1.333,4.826,0l6.827,6.827c1.333,1.333,1.333,3.494,0,4.826C158.763,173.749,157.889,174.083,157.015,174.083z"
		/>
	<path style="fill:#602F75;" d="M146.773,191.15c-1.529,0-2.92-1.034-3.309-2.586l-3.413-13.653c-0.457-1.83,0.655-3.683,2.485-4.14
		c1.826-0.461,3.681,0.655,4.139,2.483l3.413,13.653c0.457,1.83-0.655,3.683-2.485,4.14
		C147.324,191.117,147.046,191.15,146.773,191.15z"/>
	<path style="fill:#602F75;" d="M136.537,201.39c-1.251,0-2.458-0.69-3.057-1.886l-6.827-13.653
		c-0.843-1.686-0.159-3.736,1.527-4.581c1.683-0.845,3.736-0.162,4.581,1.527l6.827,13.653c0.843,1.686,0.159,3.736-1.527,4.581
		C137.571,201.274,137.05,201.39,136.537,201.39z"/>
	<path style="fill:#602F75;" d="M116.055,204.803c-1.884,0-3.413-1.529-3.413-3.413v-13.653c0-1.884,1.529-3.413,3.413-3.413
		c1.884,0,3.413,1.529,3.413,3.413v13.653C119.468,203.274,117.939,204.803,116.055,204.803z"/>
	<path style="fill:#602F75;" d="M92.16,204.803c-0.514,0-1.034-0.114-1.524-0.36c-1.686-0.843-2.369-2.893-1.527-4.581l6.827-13.653
		c0.845-1.688,2.896-2.369,4.581-1.527c1.686,0.843,2.369,2.893,1.527,4.581l-6.827,13.653
		C94.616,204.112,93.411,204.803,92.16,204.803z"/>
	<path style="fill:#602F75;" d="M71.683,194.563c-1.251,0-2.458-0.689-3.057-1.886c-0.843-1.686-0.159-3.736,1.527-4.581
		l13.653-6.827c1.684-0.845,3.734-0.162,4.581,1.527c0.843,1.686,0.159,3.736-1.527,4.581l-13.653,6.827
		C72.718,194.447,72.197,194.563,71.683,194.563z"/>
	<path style="fill:#602F75;" d="M58.027,180.91c-1.529,0-2.92-1.034-3.309-2.586c-0.457-1.83,0.655-3.683,2.485-4.14l13.653-3.413
		c1.823-0.461,3.681,0.655,4.139,2.483c0.457,1.83-0.655,3.683-2.485,4.14l-13.653,3.413C58.578,180.877,58.3,180.91,58.027,180.91z
		"/>
	<path style="fill:#602F75;" d="M51.202,167.258c-1.428,0-2.761-0.905-3.238-2.335c-0.596-1.789,0.37-3.722,2.159-4.318l10.24-3.413
		c1.785-0.599,3.722,0.37,4.318,2.159c0.596,1.789-0.37,3.722-2.159,4.318l-10.24,3.413C51.924,167.2,51.558,167.258,51.202,167.258
		z"/>
	<path style="fill:#602F75;" d="M58.027,146.777c-0.514,0-1.034-0.114-1.524-0.36l-6.827-3.413
		c-1.686-0.843-2.369-2.893-1.527-4.581c0.845-1.688,2.896-2.369,4.581-1.527l6.827,3.413c1.686,0.843,2.369,2.893,1.527,4.581
		C60.482,146.085,59.278,146.777,58.027,146.777z"/>
	<path style="fill:#602F75;" d="M47.788,126.298c-1.428,0-2.761-0.905-3.238-2.335c-0.596-1.789,0.37-3.722,2.159-4.318l10.24-3.413
		c1.787-0.597,3.722,0.37,4.318,2.159c0.596,1.789-0.37,3.722-2.159,4.318l-10.24,3.413C48.51,126.24,48.145,126.298,47.788,126.298
		z"/>
	<path style="fill:#602F75;" d="M54.617,109.23c-0.275,0-0.553-0.032-0.829-0.102l-13.653-3.413c-1.83-0.457-2.941-2.311-2.485-4.14
		c0.457-1.828,2.313-2.944,4.139-2.483l13.653,3.413c1.83,0.457,2.941,2.311,2.485,4.14C57.538,108.194,56.146,109.23,54.617,109.23
		z"/>
	<path style="fill:#602F75;" d="M54.612,98.99c-0.65,0-1.309-0.184-1.889-0.573l-10.24-6.827c-1.568-1.044-1.992-3.164-0.947-4.733
		s3.166-1.992,4.733-0.947l10.24,6.827c1.568,1.044,1.992,3.164,0.947,4.733C56.798,98.456,55.716,98.99,54.612,98.99z"/>
	<path style="fill:#602F75;" d="M54.613,75.097c-0.514,0-1.034-0.114-1.524-0.36l-6.827-3.413c-1.686-0.843-2.369-2.893-1.527-4.581
		c0.843-1.686,2.895-2.369,4.581-1.527l6.827,3.413c1.686,0.843,2.369,2.893,1.527,4.581C57.069,74.405,55.864,75.097,54.613,75.097
		z"/>
	<path style="fill:#602F75;" d="M58.03,61.443c-1.251,0-2.458-0.689-3.057-1.886l-3.413-6.827c-0.843-1.686-0.159-3.736,1.527-4.581
		c1.683-0.845,3.736-0.162,4.581,1.527l3.413,6.827c0.843,1.686,0.159,3.736-1.527,4.581C59.064,61.327,58.544,61.443,58.03,61.443z
		"/>
	<path style="fill:#602F75;" d="M68.27,47.79c-1.251,0-2.458-0.689-3.057-1.886L61.8,39.077c-0.843-1.686-0.159-3.736,1.527-4.581
		c1.683-0.845,3.736-0.162,4.581,1.527l3.413,6.827c0.843,1.686,0.159,3.736-1.527,4.581C69.304,47.674,68.784,47.79,68.27,47.79z"
		/>
	<path style="fill:#602F75;" d="M78.51,34.137c-1.251,0-2.458-0.689-3.057-1.886l-3.413-6.827c-0.843-1.686-0.159-3.736,1.527-4.581
		c1.683-0.845,3.736-0.16,4.581,1.527l3.413,6.827c0.843,1.686,0.159,3.736-1.527,4.581C79.544,34.02,79.024,34.137,78.51,34.137z"
		/>
	<path style="fill:#602F75;" d="M92.162,27.31c-0.874,0-1.748-0.333-2.413-1l-6.827-6.827c-1.333-1.333-1.333-3.494,0-4.826
		c1.331-1.333,3.495-1.333,4.826,0l6.827,6.827c1.333,1.333,1.333,3.494,0,4.826C93.909,26.975,93.035,27.31,92.162,27.31z"/>
	<path style="fill:#602F75;" d="M102.402,20.485c-1.428,0-2.761-0.905-3.238-2.335L95.751,7.91c-0.596-1.789,0.37-3.722,2.159-4.318
		c1.785-0.599,3.722,0.37,4.318,2.159l3.413,10.24c0.596,1.789-0.37,3.722-2.159,4.318
		C103.124,20.427,102.758,20.485,102.402,20.485z"/>
</g>
<g>
</g>
<g>
</g>
<g>
</g>
<g>
</g>
<g>
</g>
<g>
</g>
<g>
</g>
<g>
</g>
<g>
</g>
<g>
</g>
<g>
</g>
<g>
</g>
<g>
</g>
<g>
</g>
<g>
</g>
</svg>
