<?xml version="1.0" encoding="iso-8859-1"?>
<!-- Generator: Adobe Illustrator 19.0.0, SVG Export Plug-In . SVG Version: 6.00 Build 0)  -->
<svg version="1.1" id="Capa_1" xmlns="http://www.w3.org/2000/svg" xmlns:xlink="http://www.w3.org/1999/xlink" x="0px" y="0px"
	 viewBox="0 0 512 512" style="enable-background:new 0 0 512 512;" xml:space="preserve">
<path style="fill:#00C800;" d="M270,381.2V497c0,8.401-6.599,15-15,15s-15-6.599-15-15V381.2c0-9.901,7.5-15,15-15
	S270,371.3,270,381.2z"/>
<path style="fill:#00A554;" d="M270,381.2V497c0,8.401-6.599,15-15,15V366.2C262.5,366.2,270,371.3,270,381.2z"/>
<path style="fill:#6CD359;" d="M506.6,320.6c-2.1-1.8-49.1-39-109.1-47.1c40.8-49.2,47.1-112.2,47.401-115.199
	c0.899-9.3-7.5-17.1-16.5-16.201c-2.401,0.3-52.5,5.4-99.001,36C322.801,83.9,269.4,9,267.001,5.7C264,2.1,259.501,0,255,0
	s-9,2.1-12.001,5.7C240.601,9,187.2,83.899,180.601,177.8C134.7,147.5,84,142.4,81.6,142.1c-9.3-0.899-17.399,6.901-16.5,16.201
	c0.3,2.999,6.6,65.998,47.4,115.199c-60,8.101-105,45.3-107.1,47.1c-7.2,6-7.2,16.8,0,22.8c2.401,2.1,56.7,47.1,126,48.6
	c-11.4,24.6-14.7,45.3-14.7,46.5c-1.5,9.901,6.899,18.3,16.8,16.8c36.299-5.1,85.8-23.7,121.5-53.7
	c35.4,30,84.901,48.6,121.5,53.699c0.601,0.3,1.5,0.3,2.1,0.3c9.3,0,16.199-8.101,14.7-17.1c0-1.199-3.3-21.899-14.7-46.5
	c69.3-1.5,125.6-46.5,128-48.6C513.8,337.4,513.8,326.6,506.6,320.6z"/>
<path style="fill:#00C37A;" d="M506.6,343.4c-2.401,2.1-58.7,47.1-128,48.6c11.4,24.6,14.7,45.3,14.7,46.5c1.5,9-5.4,17.1-14.7,17.1
	c-0.601,0-1.5,0-2.1-0.3c-36.599-5.1-86.1-23.7-121.5-53.7V0c4.501,0,9,2.1,12.001,5.7c2.399,3.3,55.8,78.199,62.399,172.4
	c46.501-30.601,96.601-35.7,99.001-36c9-0.899,17.399,6.901,16.5,16.201C444.6,161.3,438.3,224.299,397.5,273.5
	c60,8.101,107,45.3,109.1,47.1C513.8,326.6,513.8,337.4,506.6,343.4z"/>
<g>
</g>
<g>
</g>
<g>
</g>
<g>
</g>
<g>
</g>
<g>
</g>
<g>
</g>
<g>
</g>
<g>
</g>
<g>
</g>
<g>
</g>
<g>
</g>
<g>
</g>
<g>
</g>
<g>
</g>
</svg>
